# xmcd
#
# Track frame offsets: 
#        150
#        14882
#        31450
#        45521
#        61508
#        72616
#        84971
#        96231
#        111437
#        123345
#        135929
#        152370
#        168920
#        184059
#        200014
#        213861
#        229055
#        239978
#        252095
#        262970
#        277877
#        289600
#        301795
#        317905
#
# Disc length: 4448 seconds
#
# Revision: 0
# Processed by: cddbd v1.5.2PL0 Copyright (c) Steve Scherf et al.
# Submitted via: ExactAudioCopy v0.95b3
#
DISCID=4e115e18
DTITLE=Bee Gees  - Horizontal - Disc 1 (Stereo-Mono)
DYEAR=1900
DGENRE=
TTITLE0=World - (Horizontal - CD 1 - 1967)
TTITLE1=And the Sun Will Shine - (Horizontal - CD 1 - 1967)
TTITLE2=Lemons Never Forget - (Horizontal - CD 1 - 1967)
TTITLE3=Really and Sincerely - (Horizontal - CD 1 - 1967)
TTITLE4=Birdie Told Me - (Horizontal - CD 1 - 1967)
TTITLE5=With the Sun In My Eyes - (Horizontal - CD 1 - 1967)
TTITLE6=Massachusetts - (Horizontal - CD 1 - 1967)
TTITLE7=Harry Braff - (Horizontal - CD 1 - 1967)
TTITLE8=Day Time Girl - (Horizontal - CD 1 - 1967)
TTITLE9=Earnest Of Being George, The - (Horizontal - CD 1 - 1967)
TTITLE10=Change Is Made, The - (Horizontal - CD 1 - 1967)
TTITLE11=Horizontal - (Horizontal - CD 1 - 1967)
TTITLE12=World (mono) - (Horizontal - CD 1 - 1967)
TTITLE13=And the Sun Will Shine (mono) - (Horizontal - CD 1 - 1967)
TTITLE14=Lemons Never Forget (mono) - (Horizontal - CD 1 - 1967)
TTITLE15=Really and Sincerely (mono) - (Horizontal - CD 1 - 1967)
TTITLE16=Birdie Told Me (mono) - (Horizontal - CD 1 - 1967)
TTITLE17=With the Sun In My Eyes (mono) - (Horizontal - CD 1 - 1967)
TTITLE18=Massachusetts (mono) - (Horizontal - CD 1 - 1967)
TTITLE19=Harry Braff (mono) - (Horizontal - CD 1 - 1967)
TTITLE20=Day Time Girl (mono) - (Horizontal - CD 1 - 1967)
TTITLE21=Earnest Of Being George, The (mono) - (Horizontal - CD 1 - 19
TTITLE21=67)
TTITLE22=Change Is Made, The (mono) - (Horizontal - CD 1 - 1967)
TTITLE23=Horizontal (mono) - (Horizontal - CD 1 - 1967)
EXTD=
EXTT0=
EXTT1=
EXTT2=
EXTT3=
EXTT4=
EXTT5=
EXTT6=
EXTT7=
EXTT8=
EXTT9=
EXTT10=
EXTT11=
EXTT12=
EXTT13=
EXTT14=
EXTT15=
EXTT16=
EXTT17=
EXTT18=
EXTT19=
EXTT20=
EXTT21=
EXTT22=
EXTT23=
PLAYORDER=
